<?xml version="1.0" encoding="utf-8"?>
<!-- Generator: Adobe Illustrator 19.0.0, SVG Export Plug-In . SVG Version: 6.00 Build 0)  -->
<svg version="1.1" id="Layer_1" xmlns="http://www.w3.org/2000/svg" xmlns:xlink="http://www.w3.org/1999/xlink" x="0px" y="0px"
	 viewBox="0 0 1080 1080" style="enable-background:new 0 0 1080 1080;" xml:space="preserve">
<style type="text/css">
	.st0{fill:#2C3D51;}
	.st1{fill:url(#XMLID_5_);}
	.st2{fill:url(#XMLID_6_);}
	.st3{fill:url(#XMLID_7_);}
	.st4{fill:none;stroke:url(#XMLID_17_);stroke-width:3;stroke-miterlimit:10;}
	.st5{fill:url(#XMLID_18_);}
	.st6{fill:url(#XMLID_20_);}
	.st7{fill:url(#XMLID_22_);}
	.st8{fill:url(#XMLID_24_);}
	.st9{fill:url(#XMLID_25_);}
	.st10{fill:url(#XMLID_27_);}
	.st11{fill:url(#XMLID_28_);}
	.st12{fill:url(#XMLID_29_);}
	.st13{fill:url(#XMLID_30_);}
	.st14{fill:url(#XMLID_31_);}
	.st15{fill:url(#XMLID_32_);}
	.st16{fill:url(#XMLID_33_);}
	.st17{fill:url(#XMLID_34_);}
	.st18{fill:none;stroke:url(#XMLID_35_);stroke-width:3;stroke-miterlimit:10;}
	.st19{fill:none;stroke:url(#XMLID_36_);stroke-width:3;stroke-miterlimit:10;}
	.st20{fill:url(#XMLID_37_);}
	.st21{fill:url(#XMLID_38_);}
	.st22{fill:url(#XMLID_39_);}
	.st23{fill:url(#XMLID_40_);}
	.st24{fill:url(#XMLID_41_);}
	.st25{fill:url(#XMLID_42_);}
	.st26{fill:url(#XMLID_43_);}
	.st27{fill:url(#XMLID_44_);}
</style>
<rect id="XMLID_1_" class="st0" width="1080" height="1080"/>
<g id="XMLID_104_">
	<linearGradient id="XMLID_5_" gradientUnits="userSpaceOnUse" x1="543.5297" y1="123.5311" x2="542.7944" y2="177.4902">
		<stop  offset="0" style="stop-color:#41E1CE"/>
		<stop  offset="0.4694" style="stop-color:#3FAADA"/>
		<stop  offset="1" style="stop-color:#3B88E6"/>
	</linearGradient>
	<path id="XMLID_90_" class="st1" d="M636.4,112.5v58.9h16.7v-58.9H636.4z M656.5,123.3v36.6h10.4v-36.6H656.5z M669.4,136.1v11.5h8
		v-11.5H669.4z M577.7,135.4c0.7,2.2,1.2,4.4,1.4,6.7c0.2,1.9,0.2,3.8,0.1,5.7h52.3v-12.4H577.7z M571.1,135.4h-49.3
		c-1.6,3.8-2.3,8-1.9,12.4H573c0.1-1.6,0.1-3.3,0-5C572.7,140.1,572,137.7,571.1,135.4z M515.1,135.4h-59.9v12.4h58.4
		C513.3,143.4,513.8,139.3,515.1,135.4z M433.5,112.5v58.9h16.7v-58.9H433.5z M419.7,123.3v36.6h10.3v-36.6H419.7z M409.2,136.1
		v11.5h8v-11.5H409.2z"/>
	
		<linearGradient id="XMLID_6_" gradientUnits="userSpaceOnUse" x1="2385.1841" y1="213.6929" x2="2295.3938" y2="133.4289" gradientTransform="matrix(-1 0 0 1 2933.2461 0)">
		<stop  offset="0" style="stop-color:#41E1CE"/>
		<stop  offset="0.4694" style="stop-color:#3FAADA"/>
		<stop  offset="1" style="stop-color:#3B88E6"/>
	</linearGradient>
	<path id="XMLID_88_" class="st2" d="M610.9,148.8c0,0,16.8,62-54,72.9l-8.4-42.6C548.6,179.1,569.6,207.7,610.9,148.8z"/>
	<linearGradient id="XMLID_7_" gradientUnits="userSpaceOnUse" x1="570.9942" y1="215.7762" x2="537.623" y2="330.9445">
		<stop  offset="0" style="stop-color:#41E1CE"/>
		<stop  offset="0.4694" style="stop-color:#3FAADA"/>
		<stop  offset="1" style="stop-color:#3B88E6"/>
	</linearGradient>
	<path id="XMLID_87_" class="st3" d="M564.7,235l-15.5,21.3L533.7,235c0,0-75.7,46.4-23.3,92.8c0,0,9.2-42.3,38.8-54.5
		c29.6,12.1,37.2,54.5,37.2,54.5C640.2,281.4,564.7,235,564.7,235z"/>
	
		<linearGradient id="XMLID_17_" gradientUnits="userSpaceOnUse" x1="-225.7457" y1="-357.1663" x2="-225.7457" y2="-357.1663" gradientTransform="matrix(-1 0 0 1 390.7302 580.4034)">
		<stop  offset="0" style="stop-color:#41E1CE"/>
		<stop  offset="0.4694" style="stop-color:#3FAADA"/>
		<stop  offset="1" style="stop-color:#3B88E6"/>
	</linearGradient>
	<path id="XMLID_86_" class="st4" d="M616.5,223.2"/>
	<linearGradient id="XMLID_18_" gradientUnits="userSpaceOnUse" x1="546.8953" y1="222.5921" x2="456.7521" y2="138.4188">
		<stop  offset="0" style="stop-color:#41E1CE"/>
		<stop  offset="0.4694" style="stop-color:#3FAADA"/>
		<stop  offset="1" style="stop-color:#3B88E6"/>
	</linearGradient>
	<path id="XMLID_85_" class="st5" d="M476.1,148.8c0,0-15.6,63.6,55.1,74.4l8.4-42.6C539.5,180.7,517.4,207.7,476.1,148.8z"/>
	<path id="XMLID_23_" class="st0" d="M548.4,178.2c0.5,0,1,0,1.5,0c-1.2,0.1-2.3,0.2-3.5,0.2c-0.6,0-1.2,0-1.8-0.1
		c0.4-0.1,0.7-0.1,1.1-0.1c0.6,0,1.3,0,1.9,0v0L548.4,178.2L548.4,178.2z"/>
	<path id="XMLID_16_" class="st0" d="M573,147.7c-1,12.5-10.8,22.9-23.8,24.3c-14.6,1.5-27.8-9.1-29.3-23.7c0-0.2,0-0.4,0-0.6
		c-0.4-4.4,0.3-8.6,1.9-12.4c3.6-8.7,11.8-15.3,21.8-16.3c12-1.3,23,5.7,27.4,16.3c1,2.3,1.6,4.8,1.9,7.4
		C573.1,144.4,573.1,146.1,573,147.7z"/>
	<linearGradient id="XMLID_20_" gradientUnits="userSpaceOnUse" x1="546.0361" y1="173.4754" x2="543.921" y2="328.6847">
		<stop  offset="0" style="stop-color:#41E1CE"/>
		<stop  offset="0.4694" style="stop-color:#3FAADA"/>
		<stop  offset="1" style="stop-color:#3B88E6"/>
	</linearGradient>
	<path id="XMLID_81_" class="st6" d="M571.5,218.4c-1.3-13.7-6.1-25.5-9.8-32.5c-0.5-0.9-1-1.8-1.4-2.5c-1.8-3-6.5-5-10-5.1
		c-0.2,0-0.3,0-0.5,0h0c-0.5,0-1,0-1.5,0v0h-0.8v0c-0.7,0-1.3,0-1.9,0c-0.4,0-0.7,0-1.1,0.1c-3.4,0.4-7.4,2.3-9,5
		c-0.1,0.2-0.2,0.4-0.4,0.6c0,0,0,0,0,0c-4,7.2-10.3,21.4-11,37.9c-0.3,5.9,0.2,12.2,1.8,18.5c0.3,1.3,0.7,2.7,1.2,4
		c3.9,12,12.7,17.3,20.5,17.5v0c0.1,0,0.3,0,0.4,0s0.3,0,0.4,0v0c7.8-0.2,16.6-5.5,20.5-17.5c0.6-1.8,1.1-3.7,1.5-5.5v0
		C571.9,231.9,572.2,224.9,571.5,218.4z M572.9,142.8c-0.3-2.6-0.9-5.1-1.9-7.4c-4.4-10.6-15.4-17.6-27.4-16.3
		c-10.1,1.1-18.2,7.6-21.8,16.3c-1.6,3.8-2.3,8-1.9,12.4c0,0.2,0,0.4,0,0.6c1.5,14.6,14.7,25.3,29.3,23.7
		c13-1.4,22.8-11.8,23.8-24.3C573.1,146.1,573.1,144.4,572.9,142.8z"/>
	
		<linearGradient id="XMLID_22_" gradientUnits="userSpaceOnUse" x1="924.3179" y1="-811.4942" x2="928.2331" y2="-811.4942" gradientTransform="matrix(-8.979300e-011 1 1 8.979300e-011 1280.3627 -621.2349)">
		<stop  offset="0" style="stop-color:#41E1CE"/>
		<stop  offset="0.4694" style="stop-color:#3FAADA"/>
		<stop  offset="1" style="stop-color:#3B88E6"/>
	</linearGradient>
	<rect id="XMLID_80_" x="449.9" y="303.1" class="st7" width="38" height="3.9"/>
	
		<linearGradient id="XMLID_24_" gradientUnits="userSpaceOnUse" x1="910.2235" y1="-809.132" x2="914.1386" y2="-809.132" gradientTransform="matrix(-8.979300e-011 1 1 8.979300e-011 1280.3627 -621.2349)">
		<stop  offset="0" style="stop-color:#41E1CE"/>
		<stop  offset="0.4694" style="stop-color:#3FAADA"/>
		<stop  offset="1" style="stop-color:#3B88E6"/>
	</linearGradient>
	<rect id="XMLID_79_" x="459.3" y="289" class="st8" width="23.9" height="3.9"/>
	
		<linearGradient id="XMLID_25_" gradientUnits="userSpaceOnUse" x1="898.6782" y1="-801.0407" x2="902.5933" y2="-801.0407" gradientTransform="matrix(-8.979300e-011 1 1 8.979300e-011 1280.3627 -621.2349)">
		<stop  offset="0" style="stop-color:#41E1CE"/>
		<stop  offset="0.4694" style="stop-color:#3FAADA"/>
		<stop  offset="1" style="stop-color:#3B88E6"/>
	</linearGradient>
	<rect id="XMLID_78_" x="471.8" y="277.4" class="st9" width="15" height="3.9"/>
	
		<linearGradient id="XMLID_27_" gradientUnits="userSpaceOnUse" x1="924.3179" y1="2331.4722" x2="928.2331" y2="2331.4722" gradientTransform="matrix(4.489700e-011 1 -1 4.489700e-011 2960.0776 -621.2349)">
		<stop  offset="0" style="stop-color:#41E1CE"/>
		<stop  offset="0.4694" style="stop-color:#3FAADA"/>
		<stop  offset="1" style="stop-color:#3B88E6"/>
	</linearGradient>
	<rect id="XMLID_77_" x="609.6" y="303.1" class="st10" width="38" height="3.9"/>
	
		<linearGradient id="XMLID_28_" gradientUnits="userSpaceOnUse" x1="910.2235" y1="2333.8345" x2="914.1386" y2="2333.8345" gradientTransform="matrix(4.489700e-011 1 -1 4.489700e-011 2960.0776 -621.2349)">
		<stop  offset="0" style="stop-color:#41E1CE"/>
		<stop  offset="0.4694" style="stop-color:#3FAADA"/>
		<stop  offset="1" style="stop-color:#3B88E6"/>
	</linearGradient>
	<rect id="XMLID_76_" x="614.3" y="289" class="st11" width="23.9" height="3.9"/>
	
		<linearGradient id="XMLID_29_" gradientUnits="userSpaceOnUse" x1="898.6782" y1="2341.9258" x2="902.5933" y2="2341.9258" gradientTransform="matrix(4.489700e-011 1 -1 4.489700e-011 2960.0776 -621.2349)">
		<stop  offset="0" style="stop-color:#41E1CE"/>
		<stop  offset="0.4694" style="stop-color:#3FAADA"/>
		<stop  offset="1" style="stop-color:#3B88E6"/>
	</linearGradient>
	<rect id="XMLID_75_" x="610.6" y="277.4" class="st12" width="15" height="3.9"/>
</g>
<g id="XMLID_3_">
	<linearGradient id="XMLID_30_" gradientUnits="userSpaceOnUse" x1="549.3846" y1="551.8384" x2="517.4731" y2="661.9688">
		<stop  offset="0" style="stop-color:#41E1CE"/>
		<stop  offset="0.4694" style="stop-color:#3FAADA"/>
		<stop  offset="1" style="stop-color:#3B88E6"/>
	</linearGradient>
	<path id="XMLID_226_" class="st13" d="M534.1,554.4c0,0-57.4,54.9,8.9,106.3c0,0-13.1-63.9,17.7-69.7L534.1,554.4z"/>
	<g id="XMLID_225_">
		
			<linearGradient id="XMLID_31_" gradientUnits="userSpaceOnUse" x1="-261.2163" y1="23.8407" x2="-221.2346" y2="23.8407" gradientTransform="matrix(-1 0 0 1 390.7302 580.4034)">
			<stop  offset="0" style="stop-color:#41E1CE"/>
			<stop  offset="0.4694" style="stop-color:#3FAADA"/>
			<stop  offset="1" style="stop-color:#3B88E6"/>
		</linearGradient>
		<rect id="XMLID_100_" x="612" y="602.3" class="st14" width="40" height="4"/>
	</g>
	<g id="XMLID_224_">
		
			<linearGradient id="XMLID_32_" gradientUnits="userSpaceOnUse" x1="-280.9991" y1="43.5812" x2="-235.9301" y2="43.5812" gradientTransform="matrix(-1 0 0 1 390.7302 580.4034)">
			<stop  offset="0" style="stop-color:#41E1CE"/>
			<stop  offset="0.4694" style="stop-color:#3FAADA"/>
			<stop  offset="1" style="stop-color:#3B88E6"/>
		</linearGradient>
		<rect id="XMLID_99_" x="626.7" y="622" class="st15" width="45.1" height="4"/>
	</g>
	<g id="XMLID_223_">
		
			<linearGradient id="XMLID_33_" gradientUnits="userSpaceOnUse" x1="-237.6479" y1="6.4007" x2="-208.32" y2="6.4007" gradientTransform="matrix(-1 0 0 1 390.7302 580.4034)">
			<stop  offset="0" style="stop-color:#41E1CE"/>
			<stop  offset="0.4694" style="stop-color:#3FAADA"/>
			<stop  offset="1" style="stop-color:#3B88E6"/>
		</linearGradient>
		<rect id="XMLID_98_" x="599.1" y="584.8" class="st16" width="29.3" height="4"/>
	</g>
	<g id="XMLID_222_">
		
			<linearGradient id="XMLID_34_" gradientUnits="userSpaceOnUse" x1="-220.312" y1="-12.3032" x2="-200.3036" y2="-12.3032" gradientTransform="matrix(-1 0 0 1 390.7302 580.4034)">
			<stop  offset="0" style="stop-color:#41E1CE"/>
			<stop  offset="0.4694" style="stop-color:#3FAADA"/>
			<stop  offset="1" style="stop-color:#3B88E6"/>
		</linearGradient>
		<rect id="XMLID_74_" x="591" y="566.1" class="st17" width="20" height="4"/>
	</g>
	
		<linearGradient id="XMLID_35_" gradientUnits="userSpaceOnUse" x1="-213.4807" y1="-14.5503" x2="-213.4807" y2="-14.5503" gradientTransform="matrix(-1 0 0 1 390.7302 580.4034)">
		<stop  offset="0" style="stop-color:#41E1CE"/>
		<stop  offset="0.4694" style="stop-color:#3FAADA"/>
		<stop  offset="1" style="stop-color:#3B88E6"/>
	</linearGradient>
	<path id="XMLID_220_" class="st18" d="M604.2,565.9"/>
	
		<linearGradient id="XMLID_36_" gradientUnits="userSpaceOnUse" x1="-228.4499" y1="-38.1298" x2="-228.4499" y2="-38.1298" gradientTransform="matrix(-1 0 0 1 390.7302 580.4034)">
		<stop  offset="0" style="stop-color:#41E1CE"/>
		<stop  offset="0.4694" style="stop-color:#3FAADA"/>
		<stop  offset="1" style="stop-color:#3B88E6"/>
	</linearGradient>
	<path id="XMLID_219_" class="st19" d="M619.2,542.3"/>
	<linearGradient id="XMLID_37_" gradientUnits="userSpaceOnUse" x1="448.2516" y1="497.7063" x2="597.2009" y2="524.1699">
		<stop  offset="0" style="stop-color:#41E1CE"/>
		<stop  offset="0.4694" style="stop-color:#3FAADA"/>
		<stop  offset="1" style="stop-color:#3B88E6"/>
	</linearGradient>
	<path id="XMLID_214_" class="st20" d="M459.3,470.8c0,0,4.6,66,72.2,69.9l8.8-45.1C540.3,495.6,511.7,526.3,459.3,470.8z"/>
	<linearGradient id="XMLID_38_" gradientUnits="userSpaceOnUse" x1="571.049" y1="458.6259" x2="568.5288" y2="643.5587">
		<stop  offset="0" style="stop-color:#41E1CE"/>
		<stop  offset="0.4694" style="stop-color:#3FAADA"/>
		<stop  offset="1" style="stop-color:#3B88E6"/>
	</linearGradient>
	<path id="XMLID_211_" class="st21" d="M527.7,436.7c15-1.6,28.5,9.3,30.1,24.4s-9.3,28.5-24.4,30.1c-15,1.6-28.5-9.3-30.1-24.4
		C501.8,451.7,512.7,438.2,527.7,436.7z M537.9,589.8c3.1,5.6,22,54.1,98.3,60.3c0,0-55.8-27.4-63.7-96.9c-9.3-81.3,61-34.7,61-34.7
		s-36.4-57.4-95.2-21.2C515.1,511.5,518.7,555.2,537.9,589.8z"/>
</g>
<g id="XMLID_2_">
	
		<linearGradient id="XMLID_39_" gradientUnits="userSpaceOnUse" x1="-40.5219" y1="1096.2128" x2="34.6973" y2="1204.2224" gradientTransform="matrix(-0.8536 0.5209 0.5209 0.8536 -91.3851 -35.3691)">
		<stop  offset="0" style="stop-color:#41E1CE"/>
		<stop  offset="0.4694" style="stop-color:#3FAADA"/>
		<stop  offset="1" style="stop-color:#3B88E6"/>
	</linearGradient>
	<path id="XMLID_243_" class="st22" d="M490.9,895.4l52.2,15.7c1,14.8-35.2,33.4-59.9,78.9C483.2,990,470.1,945,490.9,895.4z"/>
	
		<linearGradient id="XMLID_40_" gradientUnits="userSpaceOnUse" x1="475.9814" y1="696.9133" x2="473.0667" y2="910.8" gradientTransform="matrix(0.9269 0.3752 -0.3752 0.9269 412.4279 -64.9299)">
		<stop  offset="0" style="stop-color:#41E1CE"/>
		<stop  offset="0.4694" style="stop-color:#3FAADA"/>
		<stop  offset="1" style="stop-color:#3B88E6"/>
	</linearGradient>
	<path id="XMLID_242_" class="st23" d="M493.5,869.7c0,0,43.6-115.3,136.8-76.4c0,0-44.3-0.7-64.5,49.6"/>
	<linearGradient id="XMLID_41_" gradientUnits="userSpaceOnUse" x1="581.8411" y1="808.9068" x2="530.3317" y2="961.9588">
		<stop  offset="0" style="stop-color:#41E1CE"/>
		<stop  offset="0.4694" style="stop-color:#3FAADA"/>
		<stop  offset="1" style="stop-color:#3B88E6"/>
	</linearGradient>
	<path id="XMLID_238_" class="st24" d="M486,895.9c-0.7,6.7-12,33.8,67.1,93.4c0,0-13.5-39.6-10.3-67.6c1.7-14.6,0.7-17.7,12.6-26.4
		c35.2-25.7,34.7,30.3,34.7,30.3s50.2-77-43.2-94.2C512,825,489.5,860.2,486,895.9z M630,809c12.2,7.6,15.9,23.7,8.3,35.9
		c-7.6,12.2-23.7,15.9-35.9,8.3c-12.2-7.6-15.9-23.7-8.3-35.9C601.7,805.1,617.8,801.4,630,809z"/>
	<g id="XMLID_326_">
		<linearGradient id="XMLID_42_" gradientUnits="userSpaceOnUse" x1="515.7595" y1="782.9939" x2="555.165" y2="782.9939">
			<stop  offset="0" style="stop-color:#41E1CE"/>
			<stop  offset="0.4694" style="stop-color:#3FAADA"/>
			<stop  offset="1" style="stop-color:#3B88E6"/>
		</linearGradient>
		<rect id="XMLID_103_" x="515.8" y="780.8" class="st25" width="39.4" height="4.4"/>
	</g>
	<g id="XMLID_344_">
		<linearGradient id="XMLID_43_" gradientUnits="userSpaceOnUse" x1="495.7928" y1="797.0786" x2="532.3837" y2="797.0786">
			<stop  offset="0" style="stop-color:#41E1CE"/>
			<stop  offset="0.4694" style="stop-color:#3FAADA"/>
			<stop  offset="1" style="stop-color:#3B88E6"/>
		</linearGradient>
		<rect id="XMLID_102_" x="495.8" y="794.9" class="st26" width="36.6" height="4.3"/>
	</g>
	<g id="XMLID_345_">
		<linearGradient id="XMLID_44_" gradientUnits="userSpaceOnUse" x1="483.1268" y1="810.4943" x2="511.2736" y2="810.4943">
			<stop  offset="0" style="stop-color:#41E1CE"/>
			<stop  offset="0.4694" style="stop-color:#3FAADA"/>
			<stop  offset="1" style="stop-color:#3B88E6"/>
		</linearGradient>
		<rect id="XMLID_101_" x="483.1" y="808.3" class="st27" width="28.1" height="4.4"/>
	</g>
</g>
</svg>
